<?xml version="1.0" standalone="no"?>
<!DOCTYPE svg PUBLIC "-//W3C//DTD SVG 20010904//EN"
 "http://www.w3.org/TR/2001/REC-SVG-20010904/DTD/svg10.dtd">
<svg version="1.0" xmlns="http://www.w3.org/2000/svg"
 width="1088.000000pt" height="1088.000000pt" viewBox="0 0 1088.000000 1088.000000"
 preserveAspectRatio="xMidYMid meet">
<metadata>
Created by potrace 1.14, written by Peter Selinger 2001-2017
</metadata>
<g transform="translate(0.000000,1088.000000) scale(0.100000,-0.100000)"
fill="#000000" stroke="none">
<path d="M985 10863 c78 -24 202 -72 300 -118 50 -23 93 -42 98 -43 9 -1 70
-35 77 -42 5 -6 61 -33 70 -34 15 -3 219 -129 308 -190 57 -39 111 -75 119
-81 9 -5 24 -17 33 -25 10 -8 30 -25 46 -37 16 -12 38 -30 49 -40 11 -10 36
-30 55 -44 39 -30 209 -196 255 -251 102 -120 192 -256 237 -354 20 -44 40
-75 51 -78 28 -7 60 0 217 51 80 26 147 47 150 48 3 1 19 7 35 14 17 7 53 20
80 28 28 8 56 20 63 25 6 6 12 7 12 3 0 -4 6 -3 13 3 30 24 488 164 617 188
14 3 51 12 84 20 32 8 65 13 72 10 8 -3 14 -2 14 3 0 4 6 8 13 8 11 1 23 3
107 19 19 4 43 6 52 6 10 0 20 4 23 9 4 5 10 7 15 4 5 -3 39 -1 77 4 87 13
207 23 304 25 41 2 80 5 85 9 6 3 16 2 24 -3 8 -5 21 -5 29 -1 32 15 547 4
651 -14 14 -2 42 -7 64 -10 21 -4 48 -9 60 -11 11 -2 37 -7 56 -10 19 -3 42
-7 50 -10 8 -3 26 -8 40 -10 41 -8 100 -24 200 -55 95 -30 105 -34 170 -62 19
-9 58 -24 85 -35 81 -33 194 -95 370 -205 10 -6 25 -17 32 -24 8 -7 27 -20 43
-30 17 -9 30 -21 30 -25 0 -4 4 -8 10 -8 9 0 35 -19 65 -47 8 -7 16 -13 19
-13 3 0 16 -10 29 -22 14 -13 46 -41 72 -63 97 -83 102 -89 228 -233 15 -18
27 -34 27 -37 0 -3 8 -13 18 -23 54 -57 188 -250 213 -307 8 -16 16 -32 19
-35 6 -6 65 -121 66 -129 0 -3 22 -51 48 -106 26 -55 49 -107 51 -115 2 -8 11
-33 20 -55 15 -34 42 -116 50 -150 1 -5 5 -17 8 -25 4 -8 14 -49 23 -90 8 -41
17 -84 20 -95 5 -24 21 -125 29 -180 23 -168 23 -454 1 -605 -2 -14 -7 -45
-10 -70 -4 -25 -11 -70 -17 -100 -6 -30 -13 -68 -16 -85 -8 -44 -11 -60 -13
-60 -2 0 -7 -20 -15 -59 -7 -32 -78 -230 -105 -291 -10 -22 -26 -62 -36 -90
-10 -27 -24 -61 -31 -75 -7 -14 -13 -30 -13 -36 0 -11 -10 -35 -43 -104 -12
-23 -15 -27 -11 -10 6 24 6 24 -10 5 -8 -11 -16 -26 -16 -32 0 -7 -5 -13 -10
-13 -6 0 -9 -3 -8 -7 2 -10 -13 -46 -22 -53 -3 -3 -31 -41 -60 -85 -30 -44
-57 -82 -60 -85 -3 -3 -30 -34 -60 -70 -73 -85 -141 -152 -259 -253 -86 -73
-354 -241 -377 -237 -4 1 -10 -2 -13 -7 -3 -5 -26 -19 -51 -30 -72 -33 -144
-64 -160 -69 -8 -2 -58 -18 -111 -36 -54 -18 -101 -34 -105 -35 -5 -1 -38 -9
-74 -18 -36 -9 -76 -19 -90 -21 -14 -3 -36 -7 -50 -10 -14 -2 -41 -7 -60 -10
-19 -2 -45 -6 -57 -8 -70 -13 -199 -20 -348 -20 -141 0 -310 8 -310 14 0 1
-16 3 -35 5 -19 2 -53 7 -75 10 -22 4 -49 8 -61 10 -50 7 -206 49 -289 77 -94
32 -272 105 -291 120 -6 4 -33 20 -60 34 -72 38 -232 146 -288 196 -74 64
-271 266 -326 334 -56 69 -110 144 -110 152 0 6 -3 12 -7 14 -12 5 -63 83 -63
96 0 7 -4 12 -10 12 -5 0 -10 5 -10 11 0 7 -10 28 -22 48 -13 20 -23 38 -24
41 0 3 -13 31 -28 63 -45 95 -107 266 -122 332 -1 6 -7 30 -14 55 -7 25 -14
54 -16 65 -12 60 -16 83 -19 110 -2 17 -4 30 -5 30 -2 0 -3 9 -15 105 -15 118
-9 457 10 550 3 14 8 44 11 68 5 34 29 138 69 292 12 46 62 177 98 255 106
231 227 404 408 588 48 48 90 87 93 87 3 0 14 8 24 18 50 48 192 155 192 144
0 -4 4 -2 8 4 14 22 187 117 337 185 100 45 119 53 130 54 11 2 54 18 105 41
20 8 45 17 55 19 11 2 21 4 23 5 1 2 5 3 10 4 4 1 12 4 17 7 6 3 44 16 85 28
41 13 84 27 95 32 11 5 31 11 45 13 14 3 63 17 110 31 47 14 115 33 153 42 98
24 92 32 -38 53 -106 17 -145 21 -207 23 -32 1 -58 4 -58 7 0 12 -480 1 -610
-14 -19 -3 -57 -7 -85 -10 -27 -4 -61 -8 -75 -11 -14 -2 -43 -7 -65 -10 -22
-3 -98 -17 -170 -31 -174 -34 -164 -32 -185 -39 -10 -3 -27 -8 -38 -10 -10 -2
-52 -13 -92 -25 -40 -12 -80 -23 -89 -25 -31 -7 -216 -77 -278 -105 -35 -16
-65 -30 -68 -30 -3 0 -29 -16 -59 -35 -30 -19 -57 -35 -60 -35 -9 0 -201 -132
-208 -143 -4 -7 -8 -8 -8 -3 0 6 -15 -4 -32 -21 -18 -16 -42 -36 -54 -44 -73
-49 -264 -234 -353 -342 -92 -114 -147 -204 -230 -377 -36 -75 -120 -279 -125
-305 -6 -26 -28 -102 -33 -115 -3 -8 -7 -19 -8 -25 -2 -5 -7 -28 -13 -50 -6
-22 -13 -51 -16 -65 -3 -14 -8 -36 -10 -50 -7 -28 -10 -45 -30 -150 -9 -41
-17 -89 -20 -107 -2 -17 -7 -37 -11 -42 -3 -6 -1 -11 5 -11 6 0 8 -5 3 -12 -4
-7 -9 -20 -10 -28 -19 -90 -23 -394 -7 -468 7 -31 13 -57 14 -57 10 0 20 -155
11 -170 -6 -11 -12 -32 -13 -52 -1 -7 -5 -13 -10 -13 -5 0 -13 -11 -18 -25
-12 -33 -115 -184 -152 -226 -10 -10 -18 -22 -18 -26 0 -3 -7 -13 -15 -22 -8
-9 -67 -81 -130 -161 -64 -80 -121 -152 -128 -160 -7 -8 -39 -51 -71 -95 -32
-44 -71 -96 -85 -115 -54 -71 -171 -249 -171 -259 0 -6 -4 -11 -10 -11 -5 0
-10 -5 -10 -10 0 -6 -12 -29 -27 -53 -55 -85 -103 -191 -103 -230 0 -87 46
-142 158 -185 107 -42 115 -45 133 -48 9 -2 37 -13 63 -24 26 -11 52 -20 57
-20 5 0 26 -7 47 -16 20 -10 43 -18 50 -20 7 -1 32 -14 55 -27 49 -29 97 -110
97 -165 0 -39 -30 -101 -78 -162 -34 -42 -43 -53 -83 -97 -34 -38 -42 -94 -21
-143 27 -62 123 -169 200 -222 39 -27 43 -33 40 -66 -2 -29 -9 -40 -33 -52
-16 -8 -34 -19 -40 -25 -14 -11 -5 -65 25 -163 12 -37 23 -83 26 -102 2 -19 7
-48 9 -65 3 -16 7 -59 10 -94 3 -35 7 -66 9 -68 2 -3 0 -19 -5 -36 -6 -18 -12
-43 -15 -57 -2 -14 -7 -31 -10 -39 -17 -48 -25 -236 -12 -286 22 -87 55 -142
138 -225 159 -162 312 -215 495 -170 28 7 57 14 65 15 8 1 22 5 30 8 17 7 39
10 56 8 12 -1 12 -110 0 -129 -4 -7 -4 -12 1 -12 4 0 7 -15 6 -32 -1 -18 -2
-33 -3 -33 -1 0 -3 -12 -4 -28 -1 -15 2 -27 7 -27 4 0 5 -5 1 -12 -4 -7 -9
-69 -11 -138 -1 -69 -5 -199 -7 -290 -18 -644 -25 -855 -26 -855 0 0 -3 -81
-5 -180 -3 -99 -7 -209 -9 -245 l-4 -65 -74 -67 c-40 -37 -76 -68 -80 -68 -4
0 -13 -6 -20 -12 -24 -23 -136 -98 -146 -98 -5 0 -12 -7 -16 -15 -3 -8 -15
-15 -26 -15 -11 0 -20 -3 -20 -7 0 -11 -58 -43 -76 -43 -8 0 -14 -4 -14 -8 0
-4 -30 -22 -67 -39 -146 -68 -220 -101 -258 -114 -22 -7 -44 -16 -50 -20 -5
-3 -34 -14 -62 -23 -29 -10 -53 -19 -53 -22 0 -2 768 -4 1707 -4 938 0 1704 2
1701 5 -7 7 -137 55 -163 61 -11 2 -29 8 -40 13 -20 9 -55 23 -65 26 -30 7
-93 31 -125 48 -22 11 -51 25 -65 32 -24 12 -224 117 -265 139 -12 6 -87 55
-167 109 l-147 98 4 42 c3 23 7 58 10 77 2 19 7 55 10 80 6 46 9 64 19 135 4
22 8 58 11 80 11 86 21 149 32 200 4 17 6 34 5 38 -1 5 2 26 8 47 6 21 13 58
16 82 3 24 10 59 14 78 5 19 12 51 15 70 5 27 42 185 79 335 2 6 6 24 10 40 5
17 19 68 34 115 14 47 26 90 28 95 1 6 17 55 35 110 18 55 34 105 35 110 1 6
12 35 24 65 12 30 25 66 29 80 13 41 132 330 166 405 18 39 44 95 57 125 14
30 58 121 97 202 40 81 71 150 71 154 -1 4 2 10 7 13 6 3 33 51 61 106 28 55
64 125 81 155 16 30 45 84 63 120 18 36 35 67 38 70 3 3 27 48 54 100 26 52
53 101 60 108 14 14 14 14 106 -213 33 -82 65 -160 70 -172 6 -13 14 -33 20
-45 21 -50 33 -83 32 -90 -1 -5 2 -8 8 -8 6 0 9 -3 9 -7 -1 -5 0 -11 1 -15 1
-5 3 -11 5 -15 3 -12 22 -58 45 -107 11 -25 20 -48 20 -52 0 -3 11 -32 24 -63
14 -31 50 -117 82 -191 31 -74 61 -146 67 -160 6 -14 11 -27 12 -30 5 -15 27
-65 45 -102 11 -23 20 -45 20 -49 0 -3 12 -33 27 -65 15 -33 28 -61 29 -64 1
-5 24 -58 54 -125 10 -22 19 -43 20 -47 7 -35 248 -480 262 -486 4 -2 8 -8 8
-13 0 -6 27 -53 60 -106 33 -52 60 -99 60 -104 0 -5 5 -9 10 -9 6 0 10 -7 10
-15 0 -8 5 -15 10 -15 6 0 10 -5 10 -11 0 -9 145 -226 159 -239 4 -3 19 -23
35 -45 16 -22 36 -47 43 -55 7 -8 32 -37 56 -64 116 -136 369 -395 461 -471
26 -22 53 -45 59 -50 33 -29 158 -115 167 -115 5 0 10 -4 10 -8 0 -5 12 -15
28 -23 15 -8 29 -17 32 -20 12 -15 211 -139 275 -172 132 -67 258 -122 320
-141 15 -4 46 -16 75 -28 14 -5 36 -12 48 -14 13 -3 43 -12 65 -20 23 -9 51
-16 61 -15 11 0 27 -4 36 -9 9 -5 28 -11 41 -13 13 -3 44 -10 69 -17 57 -15
74 -19 188 -36 20 -3 48 -7 62 -10 14 -2 45 -7 70 -11 58 -10 1121 -10 1222
-1 42 5 92 10 110 13 31 5 62 9 153 21 22 3 46 6 53 7 7 0 12 14 12 32 0 24
-8 38 -33 57 -17 14 -70 56 -117 93 -47 36 -101 79 -120 94 -19 16 -38 29 -42
30 -4 1 -18 11 -31 24 -13 12 -46 41 -73 64 -81 67 -250 240 -409 419 -74 83
-248 293 -305 369 -25 33 -50 66 -57 75 -86 108 -343 483 -343 500 0 6 -3 10
-8 10 -4 0 -12 9 -17 19 -6 11 -58 102 -116 203 -58 101 -109 190 -112 198 -4
8 -20 38 -35 65 -16 28 -61 113 -100 190 -40 77 -76 145 -82 151 -5 7 -6 15
-3 18 4 3 1 6 -5 6 -7 0 -11 3 -10 7 1 5 -24 61 -55 127 -31 65 -57 122 -57
126 0 5 -5 10 -10 12 -6 2 -12 13 -13 26 0 12 -5 22 -9 22 -4 0 -8 4 -8 9 0 5
-20 53 -45 106 -48 103 -77 167 -80 175 0 3 -11 28 -24 55 -45 96 -71 156 -71
160 0 2 -22 50 -49 107 -26 57 -52 115 -56 128 -4 14 -16 40 -27 58 -11 17
-16 32 -13 32 4 0 3 6 -2 13 -6 6 -28 53 -51 102 -22 50 -52 116 -66 147 -15
32 -27 60 -27 63 0 2 -11 29 -24 58 -17 41 -21 57 -12 66 6 6 7 11 3 11 -5 0
-3 7 4 16 13 15 193 104 211 104 5 0 9 5 9 10 0 6 9 10 20 10 11 0 20 5 20 10
0 6 8 10 18 10 10 0 24 6 30 13 7 6 16 12 20 13 4 0 23 7 42 16 19 8 39 15 44
16 5 0 12 4 15 9 3 4 24 17 46 28 63 31 404 262 473 320 34 29 200 199 282
291 108 120 335 435 323 448 -4 3 -1 6 5 6 20 0 233 453 243 518 0 4 4 12 9
17 7 10 42 108 46 132 2 14 23 81 31 103 3 8 8 24 10 35 8 37 11 50 13 53 2 1
4 7 5 12 1 6 3 11 5 13 2 2 4 13 13 52 3 11 15 58 27 105 27 106 31 120 34
145 2 11 4 20 6 20 1 0 3 18 5 40 1 22 5 72 8 110 17 196 21 302 21 535 0 140
-4 289 -8 330 -4 41 -9 93 -11 115 -2 22 -4 40 -5 40 -3 0 -10 60 -12 98 -2
20 -5 37 -8 37 -3 0 -7 17 -8 37 -9 121 -89 415 -173 628 -65 167 -246 523
-271 533 -4 2 -8 8 -8 13 0 10 -48 87 -67 107 -7 7 -13 17 -13 22 0 5 -6 15
-13 22 -7 7 -28 36 -47 63 -19 28 -41 54 -47 58 -7 4 -13 12 -13 17 0 6 -8 18
-17 29 -10 10 -36 40 -58 67 -118 143 -312 336 -440 439 -20 17 -42 35 -49 41
-6 6 -49 38 -96 73 -47 34 -93 69 -103 77 -9 8 -20 14 -23 14 -3 0 -38 23 -79
50 -41 28 -79 50 -85 50 -5 0 -10 3 -10 8 0 4 -10 12 -23 18 -12 6 -75 39
-139 72 -65 34 -118 60 -118 57 0 -3 -10 0 -22 7 -13 6 -27 13 -33 14 -5 2
-50 17 -100 34 -49 17 -97 33 -105 35 -8 2 -55 16 -105 31 -107 31 -99 29
-153 39 -23 4 -45 12 -48 16 -3 5 -9 7 -13 4 -5 -2 -31 2 -58 10 -27 8 -63 17
-79 19 -16 2 -36 6 -44 9 -8 3 -31 8 -50 11 -19 3 -44 7 -55 10 -11 2 -49 7
-85 11 -36 4 -83 10 -105 13 -22 3 -1235 6 -2695 7 -2388 3 -2650 2 -2605 -12z
m1274 -4467 c197 -51 250 -370 85 -515 -154 -136 -371 -17 -388 213 -9 133 73
270 181 302 48 15 68 15 122 0z m4848 -608 c-84 -108 -128 -158 -140 -158 -6
0 1 10 14 23 31 30 67 72 104 122 17 22 38 49 48 59 9 11 17 23 17 28 0 4 5 8
11 8 6 0 -18 -37 -54 -82z m-152 -178 c-3 -5 -12 -10 -18 -10 -7 0 -6 4 3 10
19 12 23 12 15 0z m-25 -24 c0 -2 -8 -10 -17 -17 -16 -13 -17 -12 -4 4 13 16
21 21 21 13z m-30 -40 c0 -2 -7 -7 -16 -10 -8 -3 -12 -2 -9 4 6 10 25 14 25 6z"/>
<path d="M5458 9245 c-2 -2 -57 -6 -123 -10 -154 -8 -189 -12 -248 -26 -59
-14 -78 -39 -82 -114 -10 -153 -23 -173 -150 -238 -44 -23 -82 -42 -85 -42 -8
-2 -184 -85 -202 -95 -10 -6 -27 -10 -37 -10 -11 0 -22 -4 -25 -9 -4 -5 -14
-8 -24 -6 -9 2 -24 4 -33 4 -9 1 -51 23 -93 51 -42 27 -87 52 -99 55 -46 12
-132 -59 -277 -226 -120 -138 -150 -183 -150 -225 0 -12 25 -54 56 -93 73 -94
86 -119 72 -144 -7 -15 -7 -18 2 -12 9 6 9 2 1 -14 -7 -11 -9 -21 -7 -21 6 0
-103 -313 -134 -385 -20 -48 -61 -94 -84 -96 -6 0 -18 -2 -26 -4 -31 -7 -76
-15 -110 -21 -51 -8 -71 -27 -84 -77 -15 -57 -11 -253 7 -437 5 -44 27 -111
42 -126 13 -13 62 -23 149 -29 58 -5 98 -22 124 -54 16 -19 182 -358 197 -401
1 -3 5 -12 8 -20 15 -35 13 -77 -6 -110 -11 -19 -22 -37 -26 -40 -21 -17 -73
-106 -73 -125 0 -38 35 -84 134 -180 132 -127 185 -171 246 -207 68 -38 92
-34 174 30 79 61 99 72 137 72 27 0 210 -55 266 -79 11 -5 58 -24 105 -41 47
-18 97 -41 112 -52 23 -16 47 -64 54 -108 12 -72 29 -132 43 -144 29 -25 83
-33 221 -30 302 6 405 29 408 94 0 8 3 27 6 43 4 15 8 49 10 76 4 54 19 87 50
115 24 21 349 181 389 191 15 4 29 11 32 15 11 17 95 3 132 -23 22 -15 44 -27
51 -27 7 0 12 -4 12 -10 0 -11 69 -47 85 -45 36 6 78 37 168 128 98 100 119
123 188 212 33 42 59 94 59 118 0 8 -9 24 -20 37 -11 13 -20 26 -20 29 0 3
-15 22 -33 42 -80 89 -81 118 -7 324 98 272 123 318 179 330 11 3 31 7 44 10
12 3 40 8 61 11 98 12 117 49 117 214 0 205 -19 367 -45 399 -6 8 -9 17 -6 20
9 11 -48 31 -106 36 -33 4 -71 7 -85 9 -44 5 -87 38 -111 85 -13 26 -28 53
-34 61 -6 8 -41 83 -79 165 -57 125 -69 159 -69 205 -1 49 4 62 42 115 23 34
42 66 42 73 0 7 5 12 10 12 15 0 12 43 -5 77 -24 49 -207 225 -326 315 -69 51
-109 63 -148 44 -16 -9 -34 -22 -38 -29 -4 -7 -20 -20 -34 -29 -14 -9 -33 -23
-40 -31 -23 -22 -56 -37 -82 -37 -26 0 -132 33 -297 93 -224 81 -242 96 -256
222 -13 111 -29 130 -116 141 -29 3 -63 7 -75 9 -12 1 -24 1 -25 0z m130
-1241 c201 -50 373 -183 460 -357 35 -69 53 -112 53 -124 0 -2 5 -17 10 -35
18 -60 20 -72 20 -158 1 -93 -8 -165 -22 -192 -5 -9 -8 -21 -8 -25 3 -10 -6
-33 -39 -103 -80 -171 -239 -310 -423 -369 -55 -18 -78 -22 -154 -27 -38 -3
-78 -7 -87 -8 -10 -2 -18 -1 -18 3 0 4 -15 6 -32 6 -75 -3 -234 57 -333 125
-39 27 -98 82 -140 131 -25 30 -95 143 -95 155 0 5 -6 20 -13 34 -7 14 -19 52
-25 85 -7 33 -17 72 -22 88 -5 15 -4 27 1 27 5 0 5 10 1 23 -5 12 -7 31 -6 42
11 107 16 141 35 201 21 69 63 157 86 182 7 7 13 17 13 21 0 14 127 137 175
170 80 54 176 96 250 108 135 23 212 22 313 -3z"/>
</g>
</svg>
