<?xml version="1.0" encoding="UTF-8"?>
<svg clip-rule="evenodd" fill-rule="evenodd" image-rendering="optimizeQuality" shape-rendering="geometricPrecision" text-rendering="geometricPrecision" version="1.1" viewBox="0 0 113 136" xmlns="http://www.w3.org/2000/svg"><g clip-rule="evenodd" fill-rule="evenodd" shape-rendering="geometricPrecision"><path id="gear" d="m56.5 20.5c-0.398 4e-3 -0.855 0.0191-1.38 0.0447-4.2 0.205-3.98 0.683-4.06 1.57-0.23 2.4 0.331 2.16-3.47 3.95-3.8 1.8-3.09 1.46-5.25 0.171-0.762-0.454-0.968-0.966-3.79 2.15-2.82 3.11-2.29 3.27-1.77 3.98 1.48 2.03 1.76 1.29 0.342 5.25-1.42 3.96-1.05 3.29-3.6 3.84-0.867 0.186-1.37 1e-3 -1.16 4.2 0.205 4.2 0.687 3.95 1.57 4.06 2.41 0.325 2.16-0.331 3.95 3.47s1.63 3.16 0.171 5.25c-0.507 0.728-0.966 0.968 2.15 3.79s3.26 2.28 3.98 1.77c2.07-1.45 1.29-1.76 5.25-0.342 3.96 1.42 3.29 1.18 3.84 3.6 0.196 0.865 1e-3 1.37 4.2 1.16 4.2-0.205 3.92-0.691 4.06-1.57 0.393-2.41-0.331-2.16 3.47-3.95 3.8-1.8 3.16-1.5 5.25-0.171 0.75 0.474 0.968 0.966 3.79-2.15 2.82-3.11 2.3-3.28 1.77-3.98-1.52-2-1.76-1.29-0.342-5.25s1.22-3.36 3.6-3.84c0.869-0.175 1.37-1e-3 1.16-4.2-0.205-4.2-0.687-3.95-1.57-4.07-2.41-0.325-2.16 0.331-3.95-3.47-1.8-3.8-1.43-3.23-0.171-5.26 0.467-0.754 0.966-0.968-2.15-3.79-3.11-2.82-3.29-2.32-3.98-1.77-2 1.59-1.29 1.76-5.25 0.342s-3.47-1.3-3.84-3.6c-0.123-0.766-0.0316-1.24-2.82-1.21zm-0.177 15.2a8.85 8.85 0 0 1 8.85 8.85 8.85 8.85 0 0 1-8.85 8.85 8.85 8.85 0 0 1-8.85-8.85 8.85 8.85 0 0 1 8.85-8.85z" fill="#272223" image-rendering="optimizeQuality" stroke-width=".0885"/><path id="letterR" transform="matrix(.0939 0 0 .0939 -18.4 -3.14)" d="m426 210c1.95 4.36 8.62 5.04 13.1 3.17 36.1-9.59 70-25 106-36 19.2-5.89 38.7-10.7 58.3-14.8 15.6-3.25 31.3-6.1 47.1-8.04 10.2-1.25 20.4-2.08 30.7-2.67 12.2-0.702 24.5-1.16 36.7-1.51 15.6-0.447 31.2-0.767 46.9-0.218 8.56 0.301 17.1 0.876 25.6 1.99 10 1.31 19.9 3.04 29.8 5.09 17.3 3.59 34.4 8.21 51 14.3 16.4 5.96 32.2 13.3 47.3 21.9 11.8 6.71 23.2 14.2 34.2 22.2 10.3 7.52 20.2 15.5 29.9 23.7 4.21 3.57 8.29 7.29 12.1 11.3 6.81 7.01 13.1 14.5 19.2 22.1 6.99 8.65 13.9 17.3 20.3 26.5 3.94 5.73 7.49 11.7 10.8 17.8 4.34 8 8.53 16.1 12.5 24.3 4.29 8.83 8.4 17.8 12.1 26.9 7.53 18.6 13 38.1 16.7 57.8 4 21 6.18 42.4 6.16 63.8-0.019 20-2.12 39.9-5.58 59.5-2.29 13-5.04 25.9-9.17 38.5-3.83 11.6-8.51 22.9-13.1 34.2-6.27 15.3-1.78 5.35-13.3 34-56.3 140-220 171-338 239-175 118-288 141-319 239-0.843 3.04-0.78 8.17-0.873 11.3-2.42 80.4-6.35 235-7.92 260-0.118 1.84-1.56 4.22-2.92 5.46-9.82 8.93-43.7 42.1-126 70.5-2.03 0.697-1.19 2.45 0.277 2.45l453 0.643c20.6 0.018-39-15.6-55-24.4-11.6-6.36-31.8-15.8-43.1-22.8-8.92-5.62-17.6-11.6-26.4-17.5-3.75-2.53-7.62-4.87-11.2-7.61-1.42-1.08-1.29-3.19-1.08-4.85 2.37-18.3 4.84-36.5 7.36-54.8 1.29-9.36 2.84-18.7 4.48-28 2.18-12.3 4.46-24.7 7.07-36.9 3.74-17.6 7.83-35.1 12.6-52.4 7.02-25.7 15.3-51.1 24.7-76.1 8.43-22.3 17.7-44.4 27.7-66.1 3.7-8.04 7.48-16 11.4-24 7.77-16 15.9-31.8 24.1-47.5 11-20.8 22.1-41.5 33.2-62.3 1.11-2.08 2.1-4.22 3.33-6.23 0.589-0.958 2.08-0.327 2.5 0.717 13.4 33.5 27.2 66.7 40.9 100 7.39 18.1 14.9 36.1 22.5 54 6.01 14.2 12.1 28.4 18.2 42.5 4.76 10.9 9.56 21.7 14.7 32.4 5.06 10.6 10.5 20.9 16.3 31.1 6.27 11.2 12.8 22.2 19.4 33.2 8.27 13.6 16.8 27.1 25.8 40.3 4.74 6.96 9.65 13.8 14.8 20.5 8.08 10.5 16.8 20.5 25.7 30.2 9.23 10.1 18.7 19.9 28.4 29.6 7.12 7.1 14.4 14 22.1 20.5 5.95 5.05 12.1 9.79 18.5 14.3 8.07 5.74 16.3 11.3 24.5 16.8 6.75 4.53 13.5 9.06 20.5 13.2 10.7 6.42 22 11.7 33.4 16.8 11.7 5.18 23.7 9.79 36 13.6 10.6 3.3 21.4 6.1 32.1 8.83 13.7 3.48 27.7 5.99 41.7 7.97 9.84 1.39 19.7 2.56 29.6 3.42 9.51 0.826 19.1 0.966 28.6 0.909 14.9-0.09 29.8-0.277 44.7-0.502 11.2-0.169 22.4-0.306 33.5-0.768 15.5-0.643 31-2.09 46.5-3.81 7.1-0.794 14.2-1.74 21.2-2.93 4.5-0.76 9.02-1.46 13.5-2.36 1.22-0.246 1.29-2.09 0.299-2.85-19.2-14.7-38.3-29.5-57.2-44.6-7.47-6.01-14.3-12.7-21.1-19.5-9.33-9.25-18.3-18.8-27.2-28.5-13.9-15.3-27.3-31.1-40.3-47.2-18.2-22.7-35.4-46.2-51.5-70.4-9.44-14.2-18.5-28.7-27.1-43.4-5.73-9.75-11.3-19.6-16.7-29.5-6.6-12.1-13.1-24.2-19.5-36.4-5.42-10.4-10.7-20.8-15.8-31.3-6.37-13.2-12.7-26.5-18.9-39.8-5.37-11.5-10.6-23.1-15.8-34.7-10.3-22.8-20.4-45.6-30.5-68.4-8.51-19.2-17.6-38.1-25.5-57.6-0.902-2.23-1.19-4.87-0.535-7.18 0.818-2.88 4.18-4.23 6.79-5.53 17.3-8.57 34.7-16.8 52.1-25.2 3.82-1.86 7.61-3.81 11.2-6.05 4.1-2.54 8.15-5.18 12.2-7.82 8.82-5.77 17.5-11.7 26.2-17.7 5.46-3.77 11-7.48 16.2-11.6 4.42-3.46 8.35-7.5 12.3-11.5 6.62-6.59 13-13.4 19.4-20.2 3.87-4.13 7.74-8.27 11.4-12.6 7.69-9.01 14.9-18.4 21.9-28 6.81-9.38 13.4-18.9 19.4-28.8 4.13-6.78 7.85-13.8 11.4-20.9 4.83-9.72 9.33-19.6 13.6-29.6 4.55-10.6 8.73-21.4 12.3-32.4 4.23-12.8 7.8-25.9 11.4-38.9 2.88-10.6 5.66-21.1 8.18-31.8 0.886-3.74 1.49-7.54 1.99-11.4 1.13-8.63 1.72-17.3 2.27-26 0.932-14.5 1.69-29 2.33-43.6 0.398-8.99 0.471-18 0.279-27-0.169-7.95-0.484-15.9-1-23.8-0.67-10.2-1.65-20.4-2.93-30.6-2.18-17.3-5.15-34.5-9.12-51.5-5.17-22.1-12.3-43.7-21.1-64.6-6.56-15.5-14.2-30.5-22.3-45.2-11.2-20.1-23.9-39.5-38.1-57.7-13.7-17.5-28.6-34-44.6-49.4-15-14.4-31-27.7-47.9-39.9-13-9.35-26.4-18.1-40.2-26.1-8.45-4.9-17.1-9.51-26-13.6-7.3-3.34-14.8-6.21-22.4-8.83-12.6-4.35-25.4-8.1-38.2-11.6-10.6-2.87-21.3-5.58-32.1-8.1-12.7-2.98-25.5-5.55-38.4-7.42-4.62-0.668-9.27-1.11-13.9-1.36-10.5-0.565-24-1.92-34.5-1.92l-676 0.0266c-4.62 1.82e-4 -4.6 0.238-0.127 1.35 40.3 10 182 75.2 226 175z" fill="#272223" image-rendering="optimizeQuality"/><path d="m47.5 16.3c-7.49-0.0594-15.4 1.84-19.4 3.83-1.47 0.736-8.79 4.81-12.1 11.1-0.971 1.87-1.81 3.81-2.44 5.82-0.892 2.84-1.41 5.78-1.78 8.73-0.119 1.25-0.15 2.5-0.0938 3.75 0.0104 0.974 0.412 1.86 0.516 2.82 0.0873 0.798-0.182 1.65-0.61 2.35-1.76 2.86-4.03 5.39-6.1 8.07-1.88 2.53-3.9 5.35-5.26 8.17-0.18 0.471-0.167 1.03 0 1.5 0.195 0.556 0.629 1.03 1.17 1.27 1.81 0.774 3.72 1.29 5.54 2.06 0.308 0.131 0.6 0.34 0.798 0.61 0.235 0.321 0.422 0.671 0.563 1.03 0.138 0.355 0.146 0.775 0 1.13-0.434 1.05-1.24 1.86-1.97 2.72-0.392 0.462-0.558 1.13-0.282 1.69 0.639 1.29 1.74 2.24 2.91 3.1 0.333 0.431 0.33 0.883-0.141 1.17-0.306 0.189-0.81 0.284-0.76 0.619 0.284 1.91 0.794 1.6 1.09 5.91 0.0581 0.849-1.56 4.01 0.137 6.71 0.97 1.54 2.63 2.81 4.32 3.46 1.56 0.48 3.24-0.155 4.77-0.478 6.83-0.909 19.2-1.97 21.5-4.82 4.08-6.28 7.47-14.2 9.04-15.6 1.28-1.13 10.3-5.18 15.6-8.45 4.89-3.02 9.68-6.92 13.2-11.6 1.05-1.4 2.13-2.88 2.44-4.64-8.83 17-34.4 18.3-45 6.01-2.53-2.47-4.48-5.37-5.77-8.68-0.594-1.53-1.09-3.1-1.41-4.69-0.599-2.97-0.763-6-0.375-9.01 1.05-8.14 4.96-14.8 11.9-19.2 4.71-2.79 9.95-4.27 15.2-5.68-2.24-0.525-4.69-0.763-7.19-0.783zm-31.5 39.6a3.06 3.67 0 0 1 3.06 3.67 3.06 3.67 0 0 1-3.06 3.67 3.06 3.67 0 0 1-3.06-3.67 3.06 3.67 0 0 1 3.06-3.67z" fill="#034584" image-rendering="optimizeQuality" stroke-width=".0939"/></g></svg>
